<svg width="244" height="145" viewBox="0 0 244 145" fill="none" xmlns="http://www.w3.org/2000/svg">
<g clip-path="url(#clip0_2342_56701)">
<path d="M35.625 126.514V141.323C35.6222 142.944 36.9431 144.271 38.5651 144.271C40.1871 144.271 41.5079 142.941 41.5079 141.323V127.866C41.5051 123.635 44.0777 121.406 48.4187 121.406V115.648C40.3087 115.648 35.625 119.653 35.625 126.511V126.514Z" fill="#212F66"/>
<path d="M166.612 126.514V141.323C166.612 142.944 167.933 144.271 169.552 144.271C171.171 144.271 172.498 142.941 172.498 141.323V127.866C172.495 123.635 175.068 121.406 179.406 121.406V115.648C171.296 115.648 166.609 119.653 166.609 126.511L166.612 126.514Z" fill="#212F66"/>
<path d="M90.9699 115.254C89.3672 115.254 88.0547 116.568 88.0547 118.172V141.584C88.0547 143.188 89.3672 144.502 90.9699 144.502C92.5725 144.502 93.8851 143.188 93.8851 141.584V118.172C93.8851 116.568 92.5725 115.254 90.9699 115.254Z" fill="#212F66"/>
<path d="M243.37 115.297C242.422 113.646 237.645 116.005 233.058 118.107C230.505 119.28 228.079 120.665 226.647 121.525C225.196 120.646 222.864 119.307 220.405 118.187C215.931 116.149 211.035 113.735 210.087 115.383C209.137 117.028 213.566 119.99 217.678 122.913C219.968 124.542 222.375 125.95 223.84 126.769C223.807 128.461 223.809 131.152 224.069 133.848C224.547 138.738 224.901 144.186 226.805 144.186C228.709 144.186 229.051 138.865 229.524 133.848C229.789 131.047 229.803 128.254 229.778 126.578C231.259 125.767 233.588 124.412 235.785 122.841C239.784 119.976 244.323 116.943 243.37 115.303V115.297Z" fill="#212F66"/>
<path d="M126.802 127.313C126.802 120.054 121.549 115.137 113.898 115.137C106.247 115.137 101.102 120.054 101.102 127.313L101.143 141.356C101.143 142.96 102.456 144.274 104.061 144.274C105.666 144.274 106.973 142.96 106.973 141.356L106.987 127.313C106.987 122.911 109.726 119.998 113.956 119.998C118.187 119.998 120.922 122.911 120.922 127.313L120.944 141.356C120.944 142.96 122.26 144.274 123.862 144.274C125.465 144.274 126.775 142.96 126.775 141.356L126.805 127.313H126.802Z" fill="#212F66"/>
<path d="M81.2632 129.716C81.2632 121.257 75.0404 115.137 66.3556 115.137C57.6708 115.137 51.4453 121.257 51.4453 129.716C51.4453 138.176 57.2121 144.296 65.0984 144.296C69.3813 144.296 73.1531 142.576 75.4383 139.894L75.4466 141.356C75.4466 142.96 76.7591 144.274 78.3618 144.274C79.9645 144.274 81.277 142.96 81.277 141.356L81.2604 129.716H81.2632ZM66.4109 139.21C61.2133 139.21 57.4443 135.264 57.4443 129.716C57.4443 124.169 61.2133 120.222 66.4109 120.222C71.6085 120.222 75.4383 124.224 75.4383 129.716C75.4383 135.209 71.6693 139.21 66.4109 139.21Z" fill="#212F66"/>
<path d="M162.018 128.574C161.415 120.69 155.375 115.137 147.104 115.137C138.42 115.137 132.078 121.257 132.078 129.716C132.078 130.43 132.227 131.68 132.227 131.68C133.147 139.083 139.133 144.26 147.113 144.26C151.669 144.26 155.264 142.537 158.033 139.67C158.939 138.729 159.362 136.874 158.13 135.767C156.281 134.116 154.322 135.928 153.488 136.71C151.854 138.248 149.611 139.169 147.116 139.169C142.473 139.169 139.006 136.085 138.254 131.544H159.29C162.36 131.544 162.051 128.97 162.018 128.574ZM138.4 127.034C139.392 123.01 142.752 120.195 147.165 120.195C151.578 120.195 155.154 123.013 156.096 127.034H138.4Z" fill="#212F66"/>
<path d="M209.19 127.851H193.481C192.243 127.851 191.226 128.869 191.226 130.11C191.226 131.352 192.243 132.361 193.481 132.361H205.993C205.056 136.388 201.53 139.206 197.065 139.206C192.6 139.206 189.292 136.388 188.3 132.361C188.3 132.361 187.816 130.279 188.151 127.854C188.9 123.313 192.37 120.226 197.012 120.226C199.513 120.226 201.754 121.15 203.39 122.688C204.219 123.47 206.181 125.282 208.029 123.631C209.264 122.519 208.844 120.669 207.933 119.731C205.161 116.858 201.572 115.141 197.012 115.141C189.032 115.141 183.044 120.315 182.127 127.721C182.127 127.721 181.98 128.968 181.98 129.684C181.98 138.144 188.319 144.264 197.001 144.264C205.683 144.264 211.315 138.714 211.92 130.824C211.948 130.431 212.257 127.856 209.19 127.856V127.851Z" fill="#212F66"/>
<path d="M16.2007 115.226C12.1609 115.226 8.73448 116.885 6.5018 119.488C6.4714 119.081 6.43548 118.669 6.3968 118.263C5.91047 113.368 5.54572 107.914 3.60318 107.914C1.66064 107.914 1.32353 113.235 0.817861 118.263C0.328772 123.108 0.549829 129.803 0.549829 129.803C0.549829 138.266 6.77812 144.38 15.4574 144.38C24.1366 144.38 30.3677 138.266 30.3677 129.632C30.3677 120.998 24.4848 115.226 16.2035 115.226H16.2007ZM15.3994 139.292C10.1465 139.292 6.37469 135.345 6.37469 129.803C6.37469 124.261 10.1437 120.315 15.3994 120.315C20.655 120.315 24.366 124.316 24.366 129.803C24.366 135.29 20.597 139.292 15.3994 139.292Z" fill="#212F66"/>
<path d="M90.9491 100.383C90.9491 100.383 90.9491 100.381 90.9464 100.381L84.5938 111.484C84.5938 111.484 84.5938 111.487 84.5938 111.49C84.5938 111.49 84.5965 111.49 84.5993 111.49H97.3488C97.3488 111.49 97.3543 111.49 97.3543 111.487C97.3543 111.487 97.3543 111.481 97.3543 111.479L90.9519 100.375L90.9491 100.383Z" fill="url(#paint0_linear_2342_56701)" stroke="url(#paint1_linear_2342_56701)" stroke-width="0.25" stroke-miterlimit="10"/>
<path d="M134.194 28.7422H102.02V42.1024H134.429C138.262 42.1024 141.348 38.8529 141.089 34.9646C140.851 31.4192 137.745 28.7422 134.194 28.7422Z" fill="#212F66"/>
<path d="M121.999 0.5C95.3365 0.5 73.7227 22.1318 73.7227 48.8162C73.7227 55.4645 75.0656 61.8003 77.4945 67.5636H145.671C149.504 67.5636 152.59 64.3169 152.331 60.4258C152.093 56.8804 148.987 54.2034 145.436 54.2034H89.9289V25.8929C89.9289 20.7822 94.0682 16.6395 99.1746 16.6395H134.011C143.975 16.6395 152.516 24.2419 153.157 34.1922C153.361 37.3615 152.767 40.3731 151.568 43.0556C159.095 45.5557 164.525 52.7045 164.436 61.0868C164.326 71.4491 155.605 79.6627 145.251 79.6627H84.8501C93.7062 90.332 107.058 97.1296 122.002 97.1296C148.664 97.1296 170.278 75.4978 170.278 48.8134C170.278 22.129 148.661 0.5 121.999 0.5Z" fill="#212F66"/>
</g>
<defs>
<linearGradient id="paint0_linear_2342_56701" x1="100.369" y1="100.787" x2="82.4374" y2="115.598" gradientUnits="userSpaceOnUse">
<stop stop-color="#424143"/>
<stop offset="0.23" stop-color="#807E7F"/>
<stop offset="0.62" stop-color="#ABABAD"/>
<stop offset="1" stop-color="#6A6768"/>
</linearGradient>
<linearGradient id="paint1_linear_2342_56701" x1="94.9917" y1="105.217" x2="85.69" y2="112.898" gradientUnits="userSpaceOnUse">
<stop stop-color="#7D7E80"/>
<stop offset="0.2" stop-color="#6A696A"/>
<stop offset="0.64" stop-color="#E5E6E7"/>
<stop offset="0.83" stop-color="#A7A9AC"/>
<stop offset="1" stop-color="#424143"/>
</linearGradient>
<clipPath id="clip0_2342_56701">
<rect width="243" height="144" fill="white" transform="translate(0.5 0.5)"/>
</clipPath>
</defs>
</svg>
